<?xml version="1.0" standalone="no"?>
<!DOCTYPE svg PUBLIC "-//W3C//DTD SVG 20010904//EN"
 "http://www.w3.org/TR/2001/REC-SVG-20010904/DTD/svg10.dtd">
<svg version="1.0" xmlns="http://www.w3.org/2000/svg"
 width="1280.000000pt" height="1280.000000pt" viewBox="0 0 1280.000000 1280.000000"
 preserveAspectRatio="xMidYMid meet">
<metadata>
Created by potrace 1.15, written by Peter Selinger 2001-2017
</metadata>
<g transform="translate(0.000000,1280.000000) scale(0.100000,-0.100000)"
fill="#000000" stroke="none">
<path d="M6357 12509 c-178 -1232 -372 -2159 -573 -2738 -2 -8 -20 17 -39 57
-102 214 -322 314 -564 257 -59 -14 -77 -14 -195 1 -263 34 -531 3 -713 -81
-194 -90 -367 -270 -454 -475 -51 -122 -71 -220 -72 -357 l0 -122 -118 0
c-134 -1 -227 -18 -339 -64 -111 -45 -204 -104 -286 -180 -142 -133 -223 -270
-270 -462 -25 -100 -28 -128 -28 -305 -1 -121 4 -226 13 -277 11 -68 11 -87 0
-120 -9 -24 -14 -83 -14 -163 0 -124 0 -125 38 -200 54 -109 144 -195 246
-236 22 -9 41 -20 41 -24 0 -4 -24 -14 -52 -23 -29 -8 -120 -36 -203 -61 -554
-169 -1283 -315 -2455 -490 -253 -38 -232 -43 85 -21 622 44 1048 104 1640
230 333 71 544 124 815 202 291 84 266 80 298 51 122 -112 297 -210 591 -329
l24 -10 -30 -32 c-43 -45 -63 -89 -63 -137 0 -48 20 -92 63 -137 l30 -32 -24
-10 c-306 -129 -422 -192 -553 -297 -49 -40 -74 -54 -90 -51 -11 3 -122 34
-246 70 -317 92 -621 165 -1052 251 -412 83 -876 143 -1405 181 -306 22 -338
18 -118 -16 1219 -183 1952 -329 2490 -495 66 -20 150 -46 188 -57 37 -11 67
-23 67 -27 0 -5 -19 -15 -41 -24 -102 -41 -192 -127 -246 -236 -38 -75 -38
-76 -38 -200 0 -80 5 -139 14 -163 11 -33 11 -52 0 -120 -9 -51 -14 -156 -13
-277 0 -176 3 -205 27 -302 14 -59 40 -137 56 -173 117 -257 373 -461 653
-520 40 -9 125 -16 189 -16 l116 -1 0 -121 c1 -244 90 -462 262 -640 126 -131
258 -207 443 -253 141 -35 363 -43 537 -20 116 15 129 15 199 0 115 -26 239
-16 325 25 98 47 178 125 227 223 22 44 42 74 45 67 42 -123 127 -418 174
-601 141 -555 236 -1065 400 -2143 33 -217 37 -189 16 110 -29 405 -73 794
-125 1105 -79 469 -215 1060 -333 1451 l-53 176 39 44 c94 106 210 310 283
496 21 54 39 100 41 102 1 2 19 -11 39 -29 91 -79 177 -79 267 0 33 29 37 30
44 13 29 -82 113 -265 158 -345 53 -96 147 -231 179 -257 9 -7 16 -19 16 -27
0 -7 -22 -87 -49 -177 -253 -844 -435 -1902 -465 -2712 l-6 -140 30 195 c193
1272 324 1923 509 2531 76 250 64 235 111 141 49 -98 129 -176 227 -223 87
-41 210 -51 327 -24 68 15 86 15 149 3 44 -8 149 -13 267 -13 211 0 312 16
452 71 205 80 381 251 482 465 64 136 86 236 86 385 l0 122 118 1 c65 0 149 7
190 16 280 59 536 263 653 520 16 36 42 114 56 173 24 96 27 127 27 297 1 115
-4 226 -13 282 -11 72 -11 98 -2 125 18 51 25 196 12 256 -29 138 -123 257
-253 322 -44 22 -74 42 -67 45 105 38 415 128 614 179 533 135 1108 242 2130
395 220 34 188 38 -118 16 -529 -38 -993 -98 -1405 -181 -431 -86 -735 -159
-1052 -251 -124 -36 -235 -67 -246 -70 -16 -3 -41 11 -90 51 -130 105 -250
169 -552 297 l-24 9 32 37 c79 90 79 176 0 266 l-32 37 24 9 c290 118 468 217
590 329 32 29 7 33 298 -51 271 -78 482 -131 815 -202 592 -126 1018 -186
1640 -230 317 -22 338 -17 85 21 -969 145 -1541 251 -2095 390 -194 49 -588
164 -617 181 -5 2 28 22 71 44 129 64 223 184 252 321 13 60 6 205 -12 256 -9
27 -9 53 2 125 9 56 14 167 13 282 0 171 -3 201 -28 300 -74 300 -268 524
-556 642 -113 46 -205 63 -341 64 l-119 0 0 123 c0 149 -22 249 -86 385 -101
214 -277 385 -482 465 -138 54 -242 71 -447 71 -111 0 -223 -5 -270 -13 -69
-12 -89 -11 -145 2 -242 58 -463 -42 -565 -256 -41 -84 -30 -99 -106 151 -185
608 -316 1259 -509 2531 l-30 195 6 -140 c10 -286 54 -733 105 -1085 72 -494
219 -1157 360 -1627 27 -90 49 -170 49 -177 0 -8 -7 -20 -16 -27 -32 -26 -126
-161 -179 -257 -45 -80 -129 -263 -158 -345 -7 -17 -11 -16 -44 13 -90 79
-176 79 -267 0 -20 -18 -38 -31 -39 -29 -2 2 -20 48 -41 102 -73 186 -189 390
-283 496 l-39 44 53 176 c160 527 319 1279 387 1826 43 339 94 959 85 1010 -2
10 -17 -69 -32 -176z m-1417 -2469 c30 -6 61 -13 67 -15 8 -3 -8 -25 -37 -54
-85 -85 -149 -204 -190 -356 -28 -101 -39 -397 -20 -539 33 -252 127 -552 251
-798 21 -43 35 -78 31 -78 -19 0 -120 34 -157 52 -124 62 -173 188 -110 284
16 25 16 25 -3 15 -58 -31 -99 -121 -86 -189 22 -115 104 -192 257 -243 l66
-22 -32 -45 c-42 -61 -170 -189 -228 -229 l-47 -33 -17 52 c-57 175 -154 271
-275 272 -61 0 -105 -18 -145 -61 -32 -35 -32 -48 -1 -28 98 64 219 17 284
-112 18 -35 52 -136 52 -155 0 -4 -36 10 -81 32 -194 98 -430 180 -654 227
-120 25 -148 27 -360 28 -210 0 -237 -2 -315 -23 -157 -43 -274 -106 -362
-193 -28 -28 -51 -49 -52 -47 -5 6 -26 136 -32 198 -21 215 101 485 301 662
153 135 392 229 579 228 71 -1 199 -25 204 -38 2 -6 20 -37 41 -69 70 -108
187 -198 333 -257 27 -10 41 -25 52 -51 18 -43 66 -226 67 -258 1 -13 5 -6 11
18 5 22 7 89 4 148 l-6 108 89 -7 c48 -4 115 -3 147 1 l59 8 -60 13 c-214 44
-252 62 -279 130 -57 140 -172 278 -279 334 -61 32 -71 64 -70 230 0 152 22
243 88 376 125 250 351 429 616 489 70 16 205 14 299 -5z m3189 9 c442 -71
791 -533 731 -967 -6 -46 -13 -89 -16 -95 -3 -7 -32 -27 -65 -46 -106 -61
-214 -194 -264 -324 -14 -37 -27 -53 -56 -67 -30 -16 -158 -51 -264 -73 -44
-9 104 -19 186 -13 l89 7 -6 -108 c-3 -59 -1 -126 4 -148 6 -24 10 -31 11 -18
1 31 49 215 66 256 12 29 29 42 119 85 118 58 202 128 265 223 21 32 41 64 43
70 5 14 132 38 204 39 84 0 218 -28 313 -66 294 -117 516 -388 562 -685 11
-73 7 -167 -12 -264 -17 -82 -15 -82 -68 -27 -82 86 -202 150 -356 192 -101
28 -384 39 -532 21 -251 -31 -555 -126 -805 -252 -43 -21 -78 -35 -78 -31 0
19 34 120 52 157 25 49 73 101 112 122 43 22 118 20 161 -6 33 -19 35 -19 25
-2 -30 57 -120 97 -188 85 -112 -21 -181 -91 -237 -239 l-31 -83 -70 52 c-73
56 -148 133 -201 208 l-32 45 66 22 c153 51 235 128 257 243 13 68 -28 158
-86 189 -19 10 -19 10 -3 -15 63 -96 14 -222 -110 -284 -37 -18 -138 -52 -157
-52 -4 0 10 35 31 78 124 246 218 546 251 798 19 142 8 438 -20 539 -41 152
-105 271 -191 357 -28 28 -49 51 -47 53 8 7 189 33 233 34 28 0 79 -4 114 -10z
m-2815 -127 c45 -21 115 -60 156 -87 87 -56 250 -216 250 -245 0 -37 -225
-630 -269 -709 -5 -8 -11 11 -15 49 -15 133 -84 241 -171 270 -79 26 -227 -12
-305 -79 -20 -17 -12 -15 43 10 92 42 186 50 243 21 96 -49 136 -130 142 -284
l4 -107 -80 -153 c-100 -192 -134 -251 -147 -251 -30 1 -206 474 -245 658 -33
154 -38 399 -11 529 26 127 67 210 144 293 53 56 145 123 171 123 4 0 45 -17
90 -38z m2321 9 c69 -39 166 -146 204 -223 18 -35 41 -109 52 -164 18 -85 20
-123 16 -264 -6 -196 -26 -300 -97 -512 -54 -159 -159 -409 -175 -415 -6 -2
-57 84 -115 189 l-105 193 0 120 c0 104 3 127 23 170 67 145 193 182 359 106
55 -25 63 -27 43 -10 -48 42 -152 83 -217 87 -139 9 -229 -84 -257 -267 l-12
-76 -61 145 c-71 169 -127 314 -183 475 l-39 115 92 94 c51 52 124 115 164
140 73 47 229 126 247 126 6 0 34 -13 61 -29z m-1761 -556 c59 -103 142 -296
196 -455 l42 -125 -17 -95 c-10 -52 -20 -161 -23 -241 -5 -171 11 -150 -154
-198 -190 -55 -341 -81 -508 -88 l-156 -6 -10 23 c-9 20 -4 34 30 89 45 74
108 215 126 281 7 24 38 96 70 159 63 127 186 401 247 551 l38 95 5 -40 c5
-36 7 -31 25 58 22 112 20 112 89 -8z m1166 -51 l5 40 24 -60 c64 -156 151
-357 236 -539 51 -110 109 -243 129 -295 20 -52 58 -131 84 -176 41 -68 47
-84 38 -104 -10 -23 -10 -23 -166 -17 -167 7 -318 33 -508 88 -165 48 -149 27
-154 198 -3 80 -13 189 -23 242 l-18 96 28 84 c69 211 189 476 258 573 l22 30
20 -99 c18 -90 20 -96 25 -61z m-572 -348 c15 -8 36 -23 46 -35 18 -20 18 -23
-12 -138 -17 -65 -36 -146 -43 -180 -8 -42 -19 -69 -35 -84 l-25 -23 -24 25
c-18 18 -30 52 -49 139 -14 63 -33 143 -43 177 -15 54 -15 64 -2 79 42 51 130
70 187 40z m-307 -395 c10 -50 21 -119 25 -153 l6 -63 -46 -23 c-58 -28 -61
-23 -53 98 7 88 36 244 45 236 2 -3 13 -46 23 -95z m545 -138 c9 -125 7 -130
-54 -99 -41 21 -49 29 -46 48 17 108 46 266 51 278 10 24 42 -125 49 -227z
m-295 -154 c-5 -119 -17 -128 -24 -18 -5 98 -3 113 16 106 8 -3 11 -30 8 -88z
m-199 -146 c6 -295 -12 -517 -58 -733 -36 -167 -27 -160 -114 -89 -41 33 -81
67 -88 74 -12 10 -5 28 40 102 30 50 67 128 84 174 28 83 29 87 30 314 l2 229
38 17 c65 29 64 30 66 -88z m442 88 l38 -17 2 -229 c1 -227 2 -231 30 -314 17
-46 54 -124 84 -174 45 -74 52 -92 40 -102 -7 -7 -47 -41 -88 -74 -50 -41 -77
-57 -81 -48 -10 18 -47 190 -64 297 -36 225 -43 681 -11 679 6 0 28 -8 50 -18z
m-570 -92 c25 -243 -15 -466 -116 -646 -35 -62 -44 -71 -59 -62 -10 5 -95 84
-190 177 -158 153 -328 346 -372 420 l-17 30 87 6 c199 14 389 51 573 110 41
13 78 24 81 25 3 1 9 -27 13 -60z m746 28 c194 -59 358 -89 553 -103 l87 -6
-17 -30 c-44 -74 -214 -267 -372 -420 -95 -93 -180 -172 -190 -177 -37 -20
-137 200 -166 366 -23 134 -17 410 9 400 6 -2 49 -16 96 -30z m-1616 -240
c196 -292 448 -558 758 -800 l86 -67 -28 -73 c-59 -155 -58 -154 -108 -175
-26 -11 -77 -32 -114 -46 l-67 -25 -73 92 c-251 319 -523 574 -818 770 -58 38
-105 72 -105 76 0 9 369 378 376 377 3 -1 45 -59 93 -129z m2654 -59 c105
-105 190 -193 189 -194 -1 -1 -59 -40 -128 -86 -70 -47 -173 -123 -230 -169
-97 -78 -407 -378 -439 -425 -8 -12 -57 -73 -108 -137 l-93 -116 -67 25 c-146
55 -166 67 -183 115 -9 24 -28 74 -42 111 l-26 67 86 68 c314 244 573 519 766
809 45 68 82 124 83 124 1 0 87 -86 192 -192z m-4146 23 c134 -24 248 -56 407
-115 127 -48 321 -135 321 -145 0 -3 -87 -53 -193 -111 l-192 -105 -120 0
c-104 0 -127 3 -170 23 -56 26 -109 72 -132 116 -30 58 -9 194 45 286 l14 25
-22 -25 c-69 -78 -107 -222 -80 -305 29 -88 135 -154 270 -170 l65 -8 -65 -29
c-112 -51 -359 -148 -518 -204 l-152 -54 -93 93 c-101 100 -166 192 -230 325
l-41 85 27 51 c46 88 151 183 254 228 132 58 392 75 605 39z m5857 -5 c111
-28 189 -72 266 -150 39 -39 81 -92 95 -117 l24 -47 -41 -84 c-64 -133 -129
-225 -230 -325 l-93 -93 -152 54 c-159 56 -406 153 -518 204 l-65 29 65 8
c135 16 241 83 270 171 26 78 -13 227 -79 304 -17 20 -15 12 10 -43 42 -92 50
-186 21 -243 -27 -52 -66 -88 -127 -116 -43 -20 -66 -23 -170 -23 l-120 0
-192 105 c-106 58 -193 108 -193 113 0 17 318 149 479 198 83 26 224 58 316
72 67 11 371 -1 434 -17z m-3169 -184 c0 -87 33 -298 66 -426 15 -56 29 -111
31 -123 4 -17 -6 -29 -51 -59 l-56 -37 -55 37 c-30 20 -55 40 -55 45 0 5 13
61 29 123 39 152 60 281 68 410 7 117 23 138 23 30z m-1780 -253 c0 -181 -42
-417 -111 -625 l-30 -91 -157 -6 c-86 -3 -195 -13 -242 -22 l-85 -17 -120 40
c-160 53 -342 131 -451 193 -131 75 -130 72 -17 94 88 17 94 20 59 25 -39 5
-35 7 105 64 79 33 250 108 379 168 129 61 269 122 310 137 95 35 190 80 259
124 46 29 58 33 78 24 22 -10 23 -15 23 -108z m3840 -15 c52 -20 154 -64 225
-97 208 -96 441 -200 560 -248 109 -44 109 -44 70 -49 -36 -5 -30 -7 58 -25
113 -22 114 -19 -17 -94 -185 -105 -541 -238 -606 -226 -127 23 -240 35 -336
35 -129 0 -115 -13 -163 152 -62 214 -91 389 -91 554 0 104 1 112 22 121 17 7
36 0 102 -39 45 -26 124 -64 176 -84z m-3582 -68 c90 -71 431 -407 469 -462
l22 -31 -72 -41 c-91 -51 -227 -97 -336 -113 -79 -11 -355 -8 -368 4 -2 3 11
55 31 115 43 135 83 328 91 442 3 47 8 109 11 138 l5 52 30 -17 c17 -10 69
-49 117 -87z m3192 -142 c11 -104 50 -277 94 -419 14 -43 23 -81 21 -83 -11
-11 -291 -13 -366 -3 -135 20 -289 78 -398 150 -36 23 395 447 584 574 l40 27
7 -72 c4 -40 12 -119 18 -174z m-2610 -454 c48 -58 66 -86 57 -91 -22 -13
-252 -58 -379 -75 -125 -17 -580 -25 -594 -11 -4 3 2 28 13 54 l19 48 195 -3
c267 -4 360 17 529 121 41 26 78 45 82 44 4 -1 39 -40 78 -87z m2029 37 c48
-29 126 -66 172 -83 83 -28 88 -29 313 -30 l229 -2 20 -46 c11 -26 17 -50 13
-53 -14 -14 -469 -6 -594 11 -127 17 -357 62 -379 75 -9 5 9 34 58 94 39 48
73 87 75 87 3 0 44 -24 93 -53z m-952 -49 l142 -73 30 -65 c17 -36 50 -100 73
-142 l43 -78 -43 -77 c-23 -43 -56 -107 -73 -143 l-30 -65 -144 -74 -145 -74
-143 73 -143 74 -74 143 -74 143 74 143 74 143 136 71 c74 39 140 72 145 72 6
1 74 -31 152 -71z m-2077 -63 c0 -8 -8 -31 -17 -51 l-18 -36 -65 6 c-68 7
-237 40 -246 48 -2 3 33 13 78 22 112 22 123 23 201 25 53 1 67 -2 67 -14z
m4133 -11 c42 -9 75 -19 72 -22 -8 -8 -178 -42 -245 -48 l-65 -6 -22 46 c-13
26 -23 49 -23 53 0 11 203 -5 283 -23z m-4634 -173 c36 -11 111 -29 166 -41
71 -16 107 -29 125 -46 l25 -24 -25 -25 c-19 -18 -53 -30 -140 -49 -63 -14
-144 -34 -178 -43 l-64 -18 -34 37 c-31 34 -34 43 -34 98 0 52 4 64 31 95 36
41 40 41 128 16z m4978 -3 c61 -67 58 -164 -6 -223 -21 -18 -24 -18 -84 -2
-34 10 -114 29 -177 43 -87 19 -121 31 -140 49 l-25 25 25 24 c18 17 56 31
140 50 63 14 135 32 160 40 64 20 84 19 107 -6z m-3243 -53 l36 -55 -36 -55
c-20 -30 -40 -55 -45 -55 -4 0 -50 11 -101 25 -134 36 -307 65 -430 72 -59 3
-105 9 -103 13 2 4 51 10 107 13 121 7 298 37 418 71 47 13 92 24 101 25 9 0
32 -23 53 -54z m1538 30 c131 -35 305 -65 426 -72 56 -3 105 -9 107 -13 2 -4
-44 -10 -103 -13 -123 -7 -296 -36 -430 -72 -51 -14 -98 -25 -103 -25 -5 0
-25 25 -45 55 l-37 55 37 55 c20 30 40 55 45 55 5 0 52 -11 103 -25z m-2691
-75 c33 0 59 -4 59 -9 0 -11 -173 -22 -184 -11 -16 16 6 32 36 26 17 -3 57 -6
89 -6z m3824 -10 c0 -10 -9 -15 -27 -14 -127 2 -158 5 -158 14 0 5 33 11 73
13 102 5 112 4 112 -13z m-3222 -206 c119 -14 351 -60 374 -73 9 -5 -7 -31
-53 -86 -36 -44 -70 -84 -74 -89 -5 -4 -46 14 -92 42 -173 105 -259 124 -527
120 l-194 -3 -18 40 c-10 22 -18 45 -18 52 -2 25 391 23 602 -3z m3096 10 c2
-2 -5 -24 -16 -50 l-20 -46 -229 -2 c-225 -1 -230 -2 -313 -30 -46 -17 -124
-54 -174 -84 -74 -45 -92 -52 -103 -40 -7 7 -40 47 -73 88 -42 51 -57 76 -48
81 16 9 231 54 332 69 126 19 316 28 485 23 85 -3 157 -7 159 -9z m-3796 -49
c32 -67 29 -69 -80 -62 -110 7 -262 37 -241 47 7 4 54 15 103 23 50 9 99 18
110 21 11 2 36 4 56 5 31 1 37 -3 52 -34z m4128 6 c49 -10 92 -21 95 -23 2 -3
-31 -13 -73 -22 -80 -18 -283 -34 -283 -23 0 4 10 27 23 53 l22 46 63 -6 c34
-4 103 -15 153 -25z m-4486 -66 c39 -9 143 -19 232 -22 l162 -6 30 -91 c69
-208 111 -444 111 -625 0 -92 -1 -98 -23 -108 -19 -9 -35 -3 -102 38 -44 26
-122 64 -175 85 -52 20 -176 74 -275 120 -245 112 -359 162 -500 220 -119 48
-120 49 -80 54 36 5 31 7 -58 25 -77 15 -95 21 -85 31 27 26 197 116 302 160
119 51 351 133 376 134 8 0 47 -7 85 -15z m4828 -26 c166 -56 336 -129 443
-190 131 -75 130 -72 17 -94 -89 -18 -94 -20 -58 -25 40 -5 39 -6 -80 -54
-142 -58 -256 -108 -500 -221 -99 -45 -223 -99 -275 -119 -52 -20 -131 -58
-176 -84 -66 -39 -85 -46 -102 -39 -21 9 -22 17 -22 121 0 165 29 340 91 554
48 165 34 152 163 152 101 0 312 23 324 35 13 12 61 2 175 -36z m-3920 6 c107
-19 212 -56 304 -108 l72 -40 -22 -31 c-41 -58 -331 -347 -430 -429 -102 -84
-178 -139 -185 -133 -2 2 -8 64 -13 137 -11 157 -46 340 -94 488 -19 60 -35
111 -35 114 0 19 298 20 403 2z m3192 3 c2 -2 -7 -40 -21 -83 -64 -207 -96
-371 -109 -568 l-7 -97 -30 17 c-105 63 -352 288 -532 487 -64 70 -77 89 -65
97 52 35 145 81 208 103 125 45 209 56 389 52 89 -2 164 -5 167 -8z m-2273
-90 c50 -21 49 -20 108 -175 l28 -73 -112 -88 c-307 -244 -555 -509 -748 -802
-39 -58 -71 -106 -72 -107 -1 -2 -89 83 -194 189 -106 105 -191 192 -190 194
2 1 50 33 108 72 295 195 567 450 818 769 l73 92 67 -25 c37 -14 88 -35 114
-46z m1229 -45 c52 -64 101 -125 109 -137 32 -47 342 -347 439 -425 57 -46
160 -122 230 -169 69 -46 127 -85 128 -86 1 -1 -84 -89 -189 -194 -105 -106
-192 -191 -194 -190 -1 2 -33 50 -72 108 -193 293 -441 558 -749 802 -100 79
-111 91 -104 111 5 12 23 60 41 107 18 47 36 89 41 94 5 6 196 87 225 96 1 0
44 -52 95 -117z m-694 -239 c45 -29 54 -39 50 -57 -2 -12 -16 -67 -31 -123
-33 -128 -66 -339 -66 -426 0 -108 -16 -87 -23 30 -8 129 -29 258 -68 410 -16
62 -29 118 -29 123 0 7 95 76 108 78 2 1 28 -15 59 -35z m-3049 -48 c157 -57
472 -184 511 -206 9 -5 -10 -10 -50 -15 -134 -15 -240 -82 -269 -170 -27 -83
11 -227 80 -305 l22 -25 -14 25 c-54 92 -75 228 -45 286 23 44 76 90 132 116
40 18 73 23 160 26 l110 4 110 -59 c208 -109 295 -158 295 -164 0 -19 -359
-165 -526 -214 -278 -81 -596 -87 -788 -14 -105 39 -224 141 -272 233 l-27 52
40 85 c22 46 61 118 88 159 59 91 215 250 245 250 12 0 101 -29 198 -64z
m6291 -23 c96 -97 164 -194 224 -322 l40 -85 -24 -46 c-37 -71 -153 -182 -230
-218 -116 -55 -182 -66 -394 -66 -207 0 -289 12 -486 73 -162 50 -479 181
-479 198 0 8 77 51 295 166 l110 59 110 -4 c87 -3 120 -8 160 -26 144 -66 182
-193 106 -359 -25 -55 -27 -63 -10 -43 66 77 105 226 79 304 -29 88 -135 156
-269 171 -41 5 -59 10 -50 15 81 46 668 269 707 270 16 0 50 -27 111 -87z
m-3545 -243 c43 -201 58 -355 58 -603 0 -126 -3 -231 -6 -234 -3 -3 -26 3 -52
13 l-46 19 -2 230 -1 230 -31 86 c-17 48 -54 126 -83 174 -29 48 -49 91 -44
95 4 5 44 38 88 74 93 77 83 84 119 -84z m621 76 c33 -27 66 -55 73 -62 12
-10 5 -27 -39 -99 -29 -48 -66 -126 -83 -174 l-31 -86 -1 -230 -2 -230 -46
-19 c-26 -10 -50 -16 -54 -12 -14 15 -5 468 12 596 16 121 44 270 66 352 13
45 3 48 105 -36z m-755 -269 c56 -144 65 -195 65 -399 0 -102 -3 -189 -6 -192
-3 -4 -48 7 -99 24 -179 57 -323 84 -583 106 l-67 6 17 30 c59 99 294 356 487
530 l89 80 33 -53 c19 -30 47 -89 64 -132z m1061 -5 c158 -153 328 -346 372
-420 l17 -30 -67 -6 c-260 -22 -404 -49 -583 -106 -51 -17 -95 -29 -97 -26
-12 12 -15 289 -4 367 16 110 62 246 113 336 35 61 44 71 59 62 10 -5 95 -84
190 -177z m-2496 -208 c-9 -32 -26 -76 -36 -97 -66 -129 -187 -176 -285 -112
-31 20 -31 7 1 -28 40 -43 84 -61 145 -61 121 1 218 97 275 272 l17 52 46 -33
c26 -17 80 -66 122 -107 41 -42 90 -96 107 -122 l33 -46 -52 -17 c-83 -27
-150 -64 -196 -109 -94 -90 -104 -209 -25 -297 39 -44 62 -52 37 -14 -63 96
-14 219 113 283 35 18 136 52 155 52 4 0 -10 -35 -31 -78 -124 -246 -218 -546
-251 -798 -19 -139 -8 -437 19 -537 40 -149 106 -273 191 -358 29 -29 45 -51
37 -54 -36 -11 -127 -26 -200 -31 -296 -22 -627 190 -782 500 -66 133 -88 224
-88 376 -1 166 9 198 70 230 107 56 222 194 279 334 27 68 65 86 279 130 l60
13 -59 8 c-32 4 -99 5 -147 1 l-89 -7 6 108 c3 59 1 126 -4 148 -7 26 -10 32
-11 17 -1 -33 -47 -211 -66 -256 -12 -27 -26 -41 -53 -52 -146 -59 -263 -149
-333 -257 -21 -32 -39 -63 -41 -69 -5 -13 -133 -37 -204 -38 -133 -1 -313 52
-444 130 -277 164 -462 490 -435 765 6 64 21 153 30 182 3 8 25 -8 54 -37 86
-86 205 -149 361 -192 78 -21 105 -23 315 -23 212 1 240 3 360 28 223 47 462
130 652 225 43 22 80 39 81 37 2 -2 -4 -30 -13 -61z m3868 -53 c201 -83 438
-148 630 -172 148 -18 431 -7 532 21 154 42 274 106 356 192 53 55 51 55 68
-27 19 -97 23 -191 12 -264 -56 -362 -366 -671 -738 -736 -47 -8 -109 -15
-137 -15 -72 1 -199 25 -204 39 -2 6 -22 38 -43 70 -63 95 -147 165 -265 223
-91 44 -107 55 -120 86 -18 44 -64 221 -65 254 -1 15 -4 9 -11 -17 -5 -22 -7
-89 -4 -148 l6 -108 -89 7 c-82 6 -230 -4 -186 -13 106 -22 234 -57 264 -73
29 -14 42 -30 56 -67 50 -130 158 -263 264 -324 33 -19 62 -39 65 -46 14 -34
27 -187 21 -248 -39 -417 -367 -767 -765 -818 -72 -9 -105 -8 -203 8 -64 10
-117 20 -117 21 0 2 22 25 49 53 86 85 152 209 192 358 27 100 38 398 19 537
-33 252 -127 552 -251 798 -21 43 -35 78 -31 78 19 0 120 -34 155 -52 127 -64
176 -187 113 -283 -25 -38 -2 -30 37 14 79 88 69 207 -25 297 -46 45 -113 82
-196 109 l-52 17 33 45 c56 79 110 135 191 200 l80 62 31 -84 c56 -148 125
-218 237 -239 68 -12 158 28 188 85 10 17 8 17 -25 -2 -43 -26 -118 -28 -161
-6 -39 21 -87 73 -112 122 -18 37 -52 138 -52 157 0 4 35 -10 78 -31 44 -22
122 -58 175 -80z m-2763 -336 c125 -26 310 -76 354 -96 23 -11 24 -16 28 -158
3 -80 13 -189 23 -241 l17 -95 -42 -125 c-54 -159 -137 -352 -196 -455 -69
-120 -67 -120 -89 -8 -18 89 -20 94 -25 58 l-5 -40 -38 95 c-61 150 -184 424
-247 551 -32 63 -63 134 -69 157 -19 67 -78 200 -125 277 -37 60 -41 74 -32
94 l10 24 156 -6 c108 -4 193 -14 280 -32z m1867 13 c8 -18 2 -36 -37 -100
-26 -43 -64 -122 -85 -175 -21 -54 -80 -188 -131 -298 -84 -182 -172 -383
-235 -539 l-24 -60 -5 40 c-5 35 -8 29 -25 -60 l-19 -98 -21 26 c-61 76 -190
361 -260 575 l-28 84 18 96 c10 53 20 162 23 242 5 171 -11 150 154 198 217
63 372 88 549 90 111 1 116 0 126 -21z m-1146 -98 c3 -70 1 -85 -11 -85 -10 0
-15 9 -14 28 3 140 5 171 13 157 5 -8 10 -53 12 -100z m-255 -57 l36 -18 -6
-63 c-7 -67 -41 -240 -48 -248 -10 -9 -39 154 -45 249 -7 109 -5 112 63 80z
m551 -80 c-6 -107 -36 -258 -48 -246 -6 6 -30 137 -53 281 -3 18 5 27 33 42
71 38 75 33 68 -77z m-1464 -51 c36 -64 84 -155 107 -201 l42 -85 -4 -105 c-3
-82 -9 -117 -26 -156 -66 -144 -193 -183 -357 -107 -56 26 -65 28 -45 11 78
-67 226 -105 305 -79 87 29 156 137 171 270 4 38 10 57 15 49 44 -79 269 -672
269 -709 0 -29 -163 -189 -250 -245 -41 -27 -113 -66 -159 -88 l-85 -40 -53
28 c-70 36 -173 147 -212 227 -18 35 -41 109 -52 164 -18 85 -20 123 -16 264
6 184 25 293 84 474 63 194 176 461 192 451 6 -3 39 -58 74 -123z m2459 -11
c73 -165 151 -395 178 -526 33 -154 38 -399 11 -529 -11 -55 -34 -129 -52
-164 -40 -81 -142 -191 -213 -228 l-53 -28 -87 42 c-136 65 -224 127 -323 228
l-92 94 39 115 c56 161 112 306 183 475 l61 145 12 -76 c28 -183 118 -276 257
-267 65 4 169 45 217 87 20 17 11 15 -45 -11 -164 -76 -290 -38 -357 107 -20
43 -23 66 -23 170 l0 120 105 193 c58 105 109 191 115 189 5 -2 36 -63 67
-136z m-1275 -53 c12 -13 26 -50 33 -83 6 -33 25 -114 42 -179 l32 -120 -39
-33 c-34 -29 -45 -33 -95 -33 -50 0 -61 4 -96 34 l-39 34 18 63 c9 35 29 116
43 179 17 77 32 122 46 137 27 28 30 28 55 1z"/>
<path d="M6329 9809 c-69 -40 -93 -130 -53 -197 25 -44 94 -76 142 -68 136 22
165 206 41 268 -45 23 -86 22 -130 -3z"/>
<path d="M3074 6539 c-36 -10 -91 -67 -100 -104 -9 -36 3 -89 27 -119 66 -83
193 -71 242 24 54 105 -54 233 -169 199z"/>
<path d="M9646 6540 c-93 -28 -134 -150 -75 -224 84 -107 259 -46 259 90 0 83
-103 158 -184 134z"/>
<path d="M6335 3241 c-104 -53 -105 -193 -2 -251 69 -39 152 -13 189 61 63
123 -65 252 -187 190z"/>
</g>
</svg>
