<svg xmlns="http://www.w3.org/2000/svg" xmlns:xlink="http://www.w3.org/1999/xlink"
     viewBox="0 0 320 480"
     width="320"
     height="480" preserveAspectRatio="xMidYMid meet"
     style="width: 100%; height: 100%; transform: translate3d(0px, 0px, 0px); content-visibility: visible;">
    <defs>
        <clipPath id="__lottie_element_5500">
            <rect width="320" height="480" x="0" y="0"></rect>
        </clipPath>
    </defs>
    <g clip-path="url(#__lottie_element_5500)">
        <g transform="matrix(1,0,0,1,106.04701232910156,196.75)" opacity="1" style="display: block;">
            <g opacity="1" transform="matrix(1,0,0,1,93.13300323486328,39.61899948120117)">
                <path fill="rgb(255,206,0)" fill-opacity="1"
                      d=" M-13.925999641418457,37.00600051879883 C-13.925999641418457,37.00600051879883 -13.638999938964844,36.41899871826172 -13.638999938964844,36.41899871826172 C-14.71399974822998,35.939998626708984 -15.715999603271484,35.077999114990234 -16.36400032043457,33.992000579833984 C-15.715999603271484,35.07600021362305 -14.71500015258789,35.93600082397461 -13.642000198364258,36.415000915527344 C-13.642000198364258,36.415000915527344 -12.97700023651123,35.05699920654297 -12.97700023651123,35.05699920654297 C-12.97599983215332,35.05799865722656 -12.975000381469727,35.058998107910156 -12.972999572753906,35.058998107910156 C-12.972999572753906,35.058998107910156 -12.482000350952148,34.05799865722656 -12.482000350952148,34.05799865722656 C-14.538000106811523,33.06399917602539 -16.03499984741211,30.514999389648438 -11.781999588012695,27.666000366210938 C7.374000072479248,13.416999816894531 20.19700050354004,-2.4609999656677246 19.988000869750977,-14.093999862670898 C21.051000595092773,-32.944000244140625 -5.044000148773193,-37.00600051879883 -1.6660000085830688,-11.435999870300293 C-1.6660000085830688,-11.435999870300293 1.9290000200271606,-11.420000076293945 1.9290000200271606,-11.420000076293945 C-2.7200000286102295,-26.336000442504883 15.550999641418457,-31.832000732421875 16.034000396728516,-14.107000350952148 C14.156999588012695,2.744999885559082 -0.5799999833106995,11.722999572753906 -15.822999954223633,25.923999786376953 C-21.051000595092773,31.031999588012695 -17.35300064086914,36.584999084472656 -13.925999641418457,37.00600051879883z M3.549999952316284,-24.812000274658203 C6.0329999923706055,-26.929000854492188 9.529000282287598,-27.099000930786133 12.454000473022461,-25.246000289916992 C13.70300006866455,-24.45599937438965 14.729999542236328,-23.381999969482422 15.51200008392334,-22.08099937438965 C14.730999946594238,-23.3799991607666 13.704000473022461,-24.45199966430664 12.456999778747559,-25.242000579833984 C9.531999588012695,-27.094999313354492 6.034999847412109,-26.923999786376953 3.552000045776367,-24.808000564575195 C0.6010000109672546,-22.29199981689453 0.5979999899864197,-22.29599952697754 3.549999952316284,-24.812000274658203z M-14.510000228881836,28.190000534057617 C-14.510000228881836,28.190000534057617 -1.940999984741211,17.486000061035156 -1.940999984741211,17.486000061035156 C4.288000106811523,12.23799991607666 9.15999984741211,7.058000087738037 12.53600025177002,2.0920000076293945 C16.226999282836914,-3.3340001106262207 18.26300048828125,-8.696000099182129 18.59000015258789,-13.845000267028809 C18.780000686645508,-17.408000946044922 18.06800079345703,-20.558000564575195 16.579999923706055,-23.006000518798828 C18.06999969482422,-20.55699920654297 18.781999588012695,-17.4060001373291 18.591999053955078,-13.840999603271484 C18.266000747680664,-8.692000389099121 16.229999542236328,-3.3299999237060547 12.538999557495117,2.0969998836517334 C9.161999702453613,7.061999797821045 4.289999961853027,12.243000030517578 -1.9390000104904175,17.490999221801758 C-1.9390000104904175,17.490999221801758 -14.508000373840332,28.194000244140625 -14.508000373840332,28.194000244140625 C-15.807999610900879,29.749000549316406 -16.13599967956543,31.33300018310547 -15.454000473022461,32.7760009765625 C-15.388999938964844,32.915000915527344 -15.317000389099121,33.047000885009766 -15.23900032043457,33.17499923706055 C-15.317999839782715,33.04499816894531 -15.390999794006348,32.9119987487793 -15.456999778747559,32.77199935913086 C-16.138999938964844,31.327999114990234 -15.810999870300293,29.7450008392334 -14.510000228881836,28.190000534057617z"></path>
            </g>
            <g opacity="1" transform="matrix(1,0,0,1,91.35600280761719,42.183998107910156)">
                <path fill="rgb(221,150,9)" fill-opacity="1"
                      d=" M-14.067000389099121,23.312000274658203 C1.1759999990463257,9.111000061035156 15.911999702453613,0.1340000033378601 17.788999557495117,-16.7189998626709 C17.305999755859375,-34.44300079345703 -0.9440000057220459,-28.908000946044922 3.7039999961853027,-13.991999626159668 C3.7039999961853027,-13.991999626159668 2.3519999980926514,-13.989999771118164 2.3519999980926514,-13.991000175476074 C1.315999984741211,-20.05500030517578 2.3559999465942383,-24.90399932861328 5.308000087738037,-27.41900062561035 C7.790999889373779,-29.535999298095703 11.286999702453613,-29.707000732421875 14.211999893188477,-27.854000091552734 C17.540000915527344,-25.746999740600586 19.29400062561035,-21.628999710083008 19.024999618530273,-16.55699920654297 C18.430999755859375,-7.201000213623047 11.704999923706055,2.9590001106262207 -0.9649999737739563,13.635000228881836 C-0.9649999737739563,13.635000228881836 -13.62399959564209,24.415000915527344 -13.62399959564209,24.415000915527344 C-13.62399959564209,24.415000915527344 -13.66100025177002,24.45800018310547 -13.66100025177002,24.45800018310547 C-16.033000946044922,27.253999710083008 -15.430999755859375,29.69700050354004 -14.861000061035156,30.90399932861328 C-14.243000030517578,32.21200180053711 -12.944000244140625,32.98099899291992 -11.717000007629395,33.52899932861328 C-11.717000007629395,33.52899932861328 -12.14900016784668,34.44300079345703 -12.14900016784668,34.44300079345703 C-15.576000213623047,34.020999908447266 -19.29400062561035,28.41900062561035 -14.067000389099121,23.312000274658203z"></path>
            </g>
            <g opacity="1" transform="matrix(1,0,0,1,21.503999710083008,39.435001373291016)">
                <path fill="rgb(255,206,0)" fill-opacity="1"
                      d=" M15.994999885559082,25.868999481201172 C0.6610000133514404,11.800000190734863 -14.131999969482422,2.9489998817443848 -16.117000579833984,-13.88700008392334 C-15.746999740600586,-31.615999221801758 2.559000015258789,-26.277000427246094 -1.99399995803833,-11.321999549865723 C-1.99399995803833,-11.321999549865723 1.600000023841858,-11.368000030517578 1.600000023841858,-11.368000030517578 C4.814000129699707,-36.96699905395508 -21.253999710083008,-32.68000030517578 -20.06999969482422,-13.84000015258789 C-20.20400047302246,-2.2049999237060547 -7.2820000648498535,13.562000274658203 11.96399974822998,27.645999908447266 C16.236000061035156,30.45800018310547 14.755000114440918,33.02000045776367 12.706000328063965,34.03200149536133 C12.706000328063965,34.03200149536133 13.204000473022461,35.02899932861328 13.204000473022461,35.02899932861328 C13.204999923706055,35.02799987792969 13.206000328063965,35.02799987792969 13.208000183105469,35.027000427246094 C13.208000183105469,35.027000427246094 13.880999565124512,36.37799835205078 13.880999565124512,36.37799835205078 C14.951000213623047,35.89099884033203 15.946000099182129,35.02199935913086 16.586999893188477,33.93199920654297 C15.946000099182129,35.02399826049805 14.947999954223633,35.89400100708008 13.878000259399414,36.38199996948242 C13.878000259399414,36.38199996948242 14.168999671936035,36.96699905395508 14.168999671936035,36.96699905395508 C17.593000411987305,36.51599884033203 21.2549991607666,30.93199920654297 15.994999885559082,25.868999481201172z M-3.703000068664551,-24.69499969482422 C-6.199999809265137,-26.790000915527344 -9.696999549865723,-26.93000030517578 -12.611000061035156,-25.052000045776367 C-13.852999687194824,-24.25200080871582 -14.871999740600586,-23.17099952697754 -15.645000457763672,-21.864999771118164 C-14.871999740600586,-23.17300033569336 -13.85200023651123,-24.2549991607666 -12.609000205993652,-25.05699920654297 C-9.694999694824219,-26.93400001525879 -6.197000026702881,-26.79400062561035 -3.7009999752044678,-24.698999404907227 C-0.7329999804496765,-22.208999633789062 -0.7350000143051147,-22.20400047302246 -3.703000068664551,-24.69499969482422z M15.67199993133545,32.720001220703125 C15.607000350952148,32.86000061035156 15.53499984741211,32.994998931884766 15.456000328063965,33.125 C15.534000396728516,32.99599838256836 15.604999542236328,32.862998962402344 15.668999671936035,32.7239990234375 C16.340999603271484,31.274999618530273 16.003999710083008,29.694000244140625 14.692999839782715,28.150999069213867 C14.692999839782715,28.150999069213867 2.056999921798706,17.55500030517578 2.056999921798706,17.55500030517578 C-4.205999851226807,12.361000061035156 -9.109999656677246,7.2230000495910645 -12.517999649047852,2.2860000133514404 C-16.243000030517578,-3.1089999675750732 -18.312999725341797,-8.45300006866455 -18.67300033569336,-13.598999977111816 C-18.885000228881836,-17.16200065612793 -18.19300079345703,-20.31999969482422 -16.719999313354492,-22.7810001373291 C-18.19099998474121,-20.31999969482422 -18.882999420166016,-17.163999557495117 -18.67099952697754,-13.602999687194824 C-18.312000274658203,-8.456999778747559 -16.240999221801758,-3.11299991607666 -12.515999794006348,2.2820000648498535 C-9.107999801635742,7.2179999351501465 -4.202000141143799,12.357000350952148 2.061000108718872,17.551000595092773 C2.061000108718872,17.551000595092773 14.696999549865723,28.145999908447266 14.696999549865723,28.145999908447266 C16.007999420166016,29.68899917602539 16.344999313354492,31.270000457763672 15.67199993133545,32.720001220703125z"></path>
            </g>
            <g opacity="1" transform="matrix(1,0,0,1,23.326000213623047,42.0880012512207)">
                <path fill="rgb(221,150,9)" fill-opacity="1"
                      d=" M14.194000244140625,23.16900062561035 C-1.1390000581741333,9.100000381469727 -15.932000160217285,0.24899999797344208 -17.91699981689453,-16.586999893188477 C-17.547000885009766,-34.314998626708984 0.7379999756813049,-28.93600082397461 -3.815000057220459,-13.979999542236328 C-3.815000057220459,-13.979999542236328 -2.4639999866485596,-13.991000175476074 -2.4630000591278076,-13.991999626159668 C-1.4670000076293945,-20.065000534057617 -2.5369999408721924,-24.90399932861328 -5.505000114440918,-27.393999099731445 C-8.001999855041504,-29.48900032043457 -11.496999740600586,-29.6299991607666 -14.41100025177002,-27.75200080871582 C-17.725000381469727,-25.615999221801758 -19.45400047302246,-21.482999801635742 -19.152000427246094,-16.413000106811523 C-18.499000549316406,-7.063000202178955 -11.706999778747559,3.0380001068115234 1.031000018119812,13.604999542236328 C1.031000018119812,13.604999542236328 13.756999969482422,24.274999618530273 13.756999969482422,24.274999618530273 C13.756999969482422,24.274999618530273 13.795000076293945,24.31800079345703 13.795000076293945,24.31800079345703 C16.184999465942383,27.0939998626709 15.598999977111816,29.542999267578125 15.03600025177002,30.7549991607666 C14.427000045776367,32.06800079345703 13.133000373840332,32.8489990234375 11.90999984741211,33.40599822998047 C11.90999984741211,33.40599822998047 12.347000122070312,34.316001892089844 12.347000122070312,34.316001892089844 C15.770999908447266,33.86600112915039 19.45400047302246,28.231000900268555 14.194000244140625,23.16900062561035z"></path>
            </g>
            <g opacity="1" transform="matrix(1,0,0,1,57.327999114990234,43.382999420166016)">
                <path fill="rgb(255,206,0)" fill-opacity="1"
                      d=" M-34.95600128173828,-34.91600036621094 C-34.1879997253418,-6.236999988555908 -26.202999114990234,17.52199935913086 -10.47700023651123,32.520999908447266 C-9.595000267028809,33.367000579833984 -8.6850004196167,34.183998107910156 -7.750999927520752,34.965999603271484 C-7.551000118255615,35.13999938964844 -7.3480000495910645,35.30699920654297 -7.144999980926514,35.4739990234375 C-6.368000030517578,36.112998962402344 -5.576000213623047,36.73400115966797 -4.763999938964844,37.33300018310547 C-4.756999969482422,37.40700149536133 -4.747000217437744,37.47999954223633 -4.736999988555908,37.55400085449219 C-4.736999988555908,37.55400085449219 5.234000205993652,37.55400085449219 5.234000205993652,37.55400085449219 C5.242000102996826,37.47700119018555 5.250999927520752,37.40399932861328 5.258999824523926,37.33300018310547 C5.4770002365112305,37.16999816894531 5.691999912261963,37.00899887084961 5.9079999923706055,36.84400177001953 C6.2230000495910645,36.60300064086914 6.5370001792907715,36.36000061035156 6.8480000495910645,36.11000061035156 C7.02400016784668,35.97100067138672 7.199999809265137,35.82899856567383 7.374000072479248,35.683998107910156 C25.451000213623047,20.992000579833984 34.16600036621094,-4.129000186920166 34.95600128173828,-34.91600036621094 C34.96799850463867,-35.43299865722656 34.85100173950195,-35.91699981689453 34.632999420166016,-36.32600021362305 C34.24399948120117,-37.06100082397461 33.54600143432617,-37.55400085449219 32.74700164794922,-37.55400085449219 C32.74700164794922,-37.55400085449219 -32.744998931884766,-37.55400085449219 -32.744998931884766,-37.55400085449219 C-33.54600143432617,-37.55400085449219 -34.24599838256836,-37.06100082397461 -34.63199996948242,-36.32600021362305 C-34.849998474121094,-35.91699981689453 -34.96799850463867,-35.43299865722656 -34.95600128173828,-34.91600036621094z"></path>
            </g>
            <g opacity="1" transform="matrix(1,0,0,1,56.638999938964844,98.66600036621094)">
                <path fill="rgb(255,206,0)" fill-opacity="1"
                      d=" M24.423999786376953,14.66100025177002 C24.423999786376953,14.66100025177002 24.423999786376953,15.223999977111816 24.423999786376953,15.223999977111816 C24.398000717163086,16.61199951171875 23.417999267578125,17.729000091552734 22.211000442504883,17.729000091552734 C22.211000442504883,17.729000091552734 -22.21500015258789,17.687000274658203 -22.21500015258789,17.687000274658203 C-23.437000274658203,17.684999465942383 -24.423999786376953,16.538000106811523 -24.423999786376953,15.119000434875488 C-24.423999786376953,15.119000434875488 -24.423999786376953,14.70300006866455 -24.423999786376953,14.70300006866455 C-24.423999786376953,14.324999809265137 -24.354999542236328,13.96500015258789 -24.226999282836914,13.642000198364258 C-23.886999130249023,12.776000022888184 -23.142000198364258,12.170000076293945 -22.268999099731445,12.138999938964844 C-13.996999740600586,11.829000473022461 -8.277999877929688,8.973999977111816 -4.776000022888184,3.9149999618530273 C-4.75,3.878000020980835 -4.7220001220703125,3.8410000801086426 -4.697999954223633,3.803999900817871 C-4.5269999504089355,3.556999921798706 -4.363999843597412,3.303999900817871 -4.205999851226807,3.0460000038146973 C-4.182000160217285,3.009000062942505 -4.158999919891357,2.9730000495910645 -4.135000228881836,2.931999921798706 C-3.9860000610351562,2.8980000019073486 -3.806999921798706,2.2820000648498535 -3.624000072479248,1.2790000438690186 C-3.6019999980926514,1.156000018119812 -3.5799999237060547,1.031999945640564 -3.558000087738037,0.8989999890327454 C-3.5190000534057617,0.6639999747276306 -3.4800000190734863,0.4099999964237213 -3.440999984741211,0.14399999380111694 C-3.0409998893737793,-2.568000078201294 -2.6530001163482666,-6.813000202178955 -2.5420000553131104,-10.517999649047852 C-2.506999969482422,-11.58899974822998 -2.5,-12.616000175476074 -2.5179998874664307,-13.54800033569336 C-2.5239999294281006,-13.916999816894531 -2.5369999408721924,-14.269000053405762 -2.555000066757202,-14.60200023651123 C-2.561000108718872,-14.732999801635742 -2.568000078201294,-14.857999801635742 -2.5759999752044678,-14.982000350952148 C-2.6730000972747803,-16.469999313354492 -1.6540000438690186,-17.729000091552734 -0.3700000047683716,-17.729000091552734 C-0.3700000047683716,-17.729000091552734 2.11899995803833,-17.729000091552734 2.11899995803833,-17.729000091552734 C2.7149999141693115,-17.729000091552734 3.249000072479248,-17.45800018310547 3.6419999599456787,-17.02199935913086 C4.118000030517578,-16.5 4.388000011444092,-15.741000175476074 4.321000099182129,-14.920999526977539 C4.321000099182129,-14.911999702453613 4.318999767303467,-14.901000022888184 4.318999767303467,-14.892999649047852 C4.289999961853027,-14.572999954223633 4.26800012588501,-14.23900032043457 4.249000072479248,-13.892999649047852 C4.24399995803833,-13.776000022888184 4.23799991607666,-13.652000427246094 4.230999946594238,-13.526000022888184 C4.044000148773193,-9.291000366210938 4.39300012588501,-3.2839999198913574 4.834000110626221,0.14399999380111694 C4.868000030517578,0.4129999876022339 4.901000022888184,0.6660000085830688 4.938000202178955,0.8989999890327454 C4.958000183105469,1.031999945640564 4.978000164031982,1.159000039100647 4.997000217437744,1.2790000438690186 C5.176000118255615,2.3480000495910645 5.360000133514404,2.938999891281128 5.520999908447266,2.7909998893737793 C5.586999893188477,2.884999990463257 5.6519999504089355,2.9779999256134033 5.7220001220703125,3.072000026702881 C5.820000171661377,3.2079999446868896 5.915999889373779,3.3429999351501465 6.015999794006348,3.4730000495910645 C6.133999824523926,3.63100004196167 6.251999855041504,3.7839999198913574 6.374000072479248,3.934000015258789 C10.335000038146973,8.946000099182129 15.730999946594238,11.552000045776367 22.360000610351562,12.10099983215332 C23.208999633789062,12.17199993133545 23.922000885009766,12.786999702453613 24.240999221801758,13.642000198364258 C24.358999252319336,13.954000473022461 24.423999786376953,14.298999786376953 24.423999786376953,14.66100025177002z"></path>
            </g>
            <g opacity="1" transform="matrix(1,0,0,1,57.55500030517578,84.64199829101562)">
                <path fill="rgb(221,150,9)" fill-opacity="1"
                      d=" M-3.3929998874664307,-1.343999981880188 C-2.4140000343322754,-1.4500000476837158 -1.4129999876022339,-1.3890000581741333 -0.4359999895095825,-1.3289999961853027 C0.6990000009536743,-1.2589999437332153 1.8309999704360962,-1.1610000133514404 2.9670000076293945,-1.1299999952316284 C3.194000005722046,-1.1230000257492065 3.4030001163482666,-1.0920000076293945 3.6029999256134033,-1.0460000038146973 C3.5339999198913574,-0.9900000095367432 3.4670000076293945,-0.9279999732971191 3.3980000019073486,-0.8740000128746033 C3.371000051498413,-0.5569999814033508 3.3489999771118164,-0.22200000286102295 3.3289999961853027,0.12399999797344208 C2.7669999599456787,0.5580000281333923 2.1730000972747803,0.890999972820282 1.5540000200271606,1.1180000305175781 C0.9559999704360962,1.3370000123977661 0.33500000834465027,1.4500000476837158 -0.3009999990463257,1.4500000476837158 C-1.409000039100647,1.4500000476837158 -2.4649999141693115,1.1039999723434448 -3.437999963760376,0.47099998593330383 C-3.446000099182129,0.10199999809265137 -3.4579999446868896,-0.25 -3.4749999046325684,-0.5849999785423279 C-3.5179998874664307,-0.6150000095367432 -3.561000108718872,-0.6460000276565552 -3.6029999256134033,-0.6759999990463257 C-3.515000104904175,-0.8790000081062317 -3.440999984741211,-1.1009999513626099 -3.3929998874664307,-1.343999981880188z"></path>
            </g>
            <g opacity="1" transform="matrix(1,0,0,1,57.32099914550781,70.57499694824219)">
                <path fill="rgb(255,206,0)" fill-opacity="1"
                      d=" M-8.687000274658203,0.0010000000474974513 C-8.687000274658203,3.0789999961853027 -8.114999771118164,5.934000015258789 -7.13700008392334,8.281999588012695 C-6.176000118255615,10.60099983215332 -4.822000026702881,12.425000190734863 -3.2360000610351562,13.48799991607666 C-2.2360000610351562,14.16100025177002 -1.1449999809265137,14.529000282287598 -0.0010000000474974513,14.529000282287598 C0.6340000033378601,14.529000282287598 1.2549999952316284,14.416000366210938 1.8539999723434448,14.196999549865723 C2.4749999046325684,13.970999717712402 3.071000099182129,13.63599967956543 3.635999917984009,13.199000358581543 C4.90500020980835,12.220000267028809 6.006999969482422,10.741999626159668 6.855000019073486,8.918000221252441 C7.771999835968018,6.954999923706055 8.390999794006348,4.589000225067139 8.604000091552734,2.003999948501587 C8.654999732971191,1.3949999809265137 8.682000160217285,0.7760000228881836 8.687000274658203,0.1469999998807907 C8.687000274658203,0.1469999998807907 8.687000274658203,0.0010000000474974513 8.687000274658203,0.0010000000474974513 C8.687000274658203,-8.02400016784668 4.796999931335449,-14.529000282287598 -0.0010000000474974513,-14.529000282287598 C-4.599999904632568,-14.529000282287598 -8.36400032043457,-8.552000045776367 -8.666999816894531,-0.9850000143051147 C-8.680000305175781,-0.6589999794960022 -8.687000274658203,-0.33000001311302185 -8.687000274658203,0.0010000000474974513z"></path>
            </g>
            <g opacity="1" transform="matrix(1,0,0,1,43.07099914550781,43.382999420166016)">
                <path fill="rgb(255,238,176)" fill-opacity="1"
                      d=" M12.901000022888184,35.4739990234375 C12.836000442504883,35.30699920654297 12.770999908447266,35.13999938964844 12.706999778747559,34.965999603271484 C12.406999588012695,34.183998107910156 12.114999771118164,33.367000579833984 11.831999778747559,32.520999908447266 C6.7870001792907715,17.52199935913086 4.223999977111816,-6.236999988555908 3.9779999256134033,-34.91600036621094 C3.9739999771118164,-35.43299865722656 4.01200008392334,-35.917999267578125 4.081999778747559,-36.32600021362305 C4.205999851226807,-37.06100082397461 4.431000232696533,-37.55400085449219 4.688000202178955,-37.55400085449219 C4.688000202178955,-37.55400085449219 -11.845000267028809,-37.55400085449219 -11.845000267028809,-37.55400085449219 C-12.506999969482422,-37.55400085449219 -13.083999633789062,-37.06100082397461 -13.402999877929688,-36.32600021362305 C-13.583000183105469,-35.917999267578125 -13.682000160217285,-35.43299865722656 -13.67199993133545,-34.91600036621094 C-13.038000106811523,-6.236999988555908 -6.442999839782715,17.52199935913086 6.543000221252441,32.520999908447266 C7.271999835968018,33.367000579833984 8.022000312805176,34.183998107910156 8.793999671936035,34.965999603271484 C8.958999633789062,35.13999938964844 9.126999855041504,35.30699920654297 9.293999671936035,35.4739990234375 C9.935999870300293,36.112998962402344 10.59000015258789,36.73400115966797 11.260000228881836,37.332000732421875 C11.265999794006348,37.40700149536133 11.27400016784668,37.47999954223633 11.281999588012695,37.55400085449219 C11.281999588012695,37.55400085449219 13.673999786376953,37.55400085449219 13.673999786376953,37.55400085449219 C13.670999526977539,37.47999954223633 13.668000221252441,37.40700149536133 13.664999961853027,37.332000732421875 C13.404999732971191,36.73400115966797 13.151000022888184,36.112998962402344 12.901000022888184,35.4739990234375z"></path>
            </g>
            <g opacity="1" transform="matrix(1,0,0,1,76.4000015258789,57.20500183105469)">
                <path fill="rgb(221,150,9)" fill-opacity="1"
                      d=" M-17.233999252319336,25.812000274658203 C-17.23200035095215,26.402000427246094 -17.229999542236328,26.989999771118164 -17.225000381469727,27.56800079345703 C-17.19099998474121,32.895999908447266 -17.038999557495117,37.74800109863281 -16.648000717163086,41.60499954223633 C-16.639999389648438,41.685001373291016 -16.631000518798828,41.763999938964844 -16.624000549316406,41.840999603271484 C-15.133000373840332,42.00199890136719 -14.729000091552734,43.76100158691406 -15.652999877929688,44.5359992980957 C-15.732000350952148,44.60100173950195 -15.821999549865723,44.6609992980957 -15.92300033569336,44.71200180053711 C-13.286999702453613,53.097999572753906 -5.071000099182129,56.305999755859375 4.663000106811523,56.6870002746582 C4.663000106811523,56.6870002746582 4.663000106811523,56.12200164794922 4.663000106811523,56.12200164794922 C4.663000106811523,54.77199935913086 3.759000062942505,53.65999984741211 2.5980000495910645,53.5629997253418 C-4.230000019073486,52.99599838256836 -9.75100040435791,50.249000549316406 -13.743000030517578,44.93600082397461 C-13.843000411987305,44.80500030517578 -13.942000389099121,44.66899871826172 -14.039999961853027,44.534000396728516 C-13.791000366210938,44.52799987792969 -13.557999610900879,44.433998107910156 -13.368000030517578,44.28099822998047 C-13.032999992370605,44.016998291015625 -12.814000129699707,43.57500076293945 -12.814000129699707,43.069000244140625 C-12.814000129699707,42.66400146484375 -12.956999778747559,42.29999923706055 -13.184000015258789,42.034000396728516 C-13.413999557495117,41.77000045776367 -13.72700023651123,41.60499954223633 -14.07699966430664,41.60499954223633 C-14.07699966430664,41.60499954223633 -14.925999641418457,41.60499954223633 -14.925999641418457,41.60499954223633 C-15.366000175476074,38.178001403808594 -15.717000007629395,32.16899871826172 -15.529000282287598,27.93400001525879 C-15.505999565124512,27.454999923706055 -15.479999542236328,26.99799919128418 -15.442999839782715,26.56999969482422 C-14.173999786376953,25.59000015258789 -13.071999549865723,24.113000869750977 -12.223999977111816,22.288999557495117 C6.210999965667725,7.656000137329102 15.086999893188477,-17.652999877929688 15.883999824523926,-48.73699951171875 C15.895999908447266,-49.25400161743164 15.779000282287598,-49.73899841308594 15.560999870300293,-50.14699935913086 C15.560999870300293,-50.14699935913086 17.233999252319336,-50.14699935913086 17.233999252319336,-50.14699935913086 C17.233999252319336,-50.14699935913086 17.233999252319336,-56.6870002746582 17.233999252319336,-56.6870002746582 C17.233999252319336,-56.6870002746582 8.6899995803833,-56.6870002746582 8.6899995803833,-56.6870002746582 C8.657999992370605,-55.222999572753906 8.609000205993652,-52.827999114990234 8.545999526977539,-51.375999450683594 C8.531000137329102,-50.96699905395508 8.51200008392334,-50.555999755859375 8.491999626159668,-50.14699935913086 C7.333000183105469,-26.378999710083008 2.134000062942505,-4.613999843597412 -10.392999649047852,13.517000198364258 C-11.74899959564209,15.486000061035156 -13.194000244140625,17.409000396728516 -14.729000091552734,19.288000106811523 C-14.90999984741211,20.98699951171875 -15.152000427246094,22.461000442504883 -15.73900032043457,23.732999801635742 C-15.85099983215332,23.976999282836914 -15.97599983215332,24.208999633789062 -16.118000030517578,24.43899917602539 C-16.413999557495117,24.927000045776367 -16.77899932861328,25.38599967956543 -17.233999252319336,25.812000274658203z"></path>
            </g>
            <g opacity="1" transform="matrix(1,0,0,1,0,0)">
                <path stroke-linecap="round" stroke-linejoin="miter" fill-opacity="0" stroke-miterlimit="10"
                      stroke="rgb(221,150,9)" stroke-opacity="1" stroke-width="4.681"
                      d=" M50.79499816894531,101.71199798583984 C50.79499816894531,101.71199798583984 64.23300170898438,101.71199798583984 64.23300170898438,101.71199798583984"></path>
            </g>
            <g opacity="1" transform="matrix(1,0,0,1,0,0)">
                <path stroke-linecap="round" stroke-linejoin="miter" fill-opacity="0" stroke-miterlimit="10"
                      stroke="rgb(221,150,9)" stroke-opacity="1" stroke-width="4.681"
                      d=" M58.68000030517578,99.36499786376953 C58.68000030517578,99.36499786376953 64.23200225830078,99.36499786376953 64.23200225830078,99.36499786376953"></path>
            </g>
            <g opacity="1" transform="matrix(1,0,0,1,0,0)">
                <path stroke-linecap="round" stroke-linejoin="miter" fill-opacity="0" stroke-miterlimit="10"
                      stroke="rgb(255,206,0)" stroke-opacity="1" stroke-width="4.681"
                      d=" M54.220001220703125,99.36499786376953 C54.220001220703125,99.36499786376953 58.68000030517578,99.36499786376953 58.68000030517578,99.36499786376953"></path>
            </g>
            <g opacity="1" transform="matrix(1,0,0,1,51.85599899291992,99.36499786376953)">
                <path fill="rgb(221,150,9)" fill-opacity="1"
                      d=" M0.6909999847412109,2.3399999141693115 C0.6909999847412109,2.3399999141693115 -1.062000036239624,2.3399999141693115 -1.062000036239624,2.3399999141693115 C-2.3540000915527344,2.3399999141693115 -3.4019999504089355,1.2940000295639038 -3.4019999504089355,0.0010000000474974513 C-3.4019999504089355,-1.2920000553131104 -2.3540000915527344,-2.3399999141693115 -1.062000036239624,-2.3399999141693115 C-1.062000036239624,-2.3399999141693115 2.1089999675750732,-2.3399999141693115 2.1089999675750732,-2.3399999141693115 C3.4019999504089355,-2.3399999141693115 3.0309998989105225,-1.2920000553131104 3.0309998989105225,0.0010000000474974513 C3.0309998989105225,1.2940000295639038 1.9830000400543213,2.3399999141693115 0.6909999847412109,2.3399999141693115z"></path>
            </g>
            <g opacity="1" transform="matrix(1,0,0,1,0,0)">
                <path stroke-linecap="round" stroke-linejoin="miter" fill-opacity="0" stroke-miterlimit="10"
                      stroke="rgb(221,150,9)" stroke-opacity="1" stroke-width="4.681"
                      d=" M54.30500030517578,87.19499969482422 C54.30500030517578,87.19499969482422 60.319000244140625,87.19499969482422 60.319000244140625,87.19499969482422"></path>
            </g>
            <g opacity="1" transform="matrix(1,0,0,1,0,0)">
                <path stroke-linecap="round" stroke-linejoin="miter" fill-opacity="0" stroke-miterlimit="10"
                      stroke="rgb(221,150,9)" stroke-opacity="1" stroke-width="4.681"
                      d=" M56.547000885009766,85.20600128173828 C56.547000885009766,85.20600128173828 60.31800079345703,85.20600128173828 60.31800079345703,85.20600128173828"></path>
            </g>
            <g opacity="1" transform="matrix(1,0,0,1,0,0)">
                <path stroke-linecap="round" stroke-linejoin="miter" fill-opacity="0" stroke-miterlimit="10"
                      stroke="rgb(221,150,9)" stroke-opacity="1" stroke-width="4.681"
                      d=" M54.30500030517578,85.20600128173828 C54.30500030517578,85.20600128173828 55.165000915527344,85.20600128173828 55.165000915527344,85.20600128173828"></path>
            </g>
            <g opacity="1" transform="matrix(1,0,0,1,0,0)">
                <path stroke-linecap="round" stroke-linejoin="miter" fill-opacity="0" stroke-miterlimit="10"
                      stroke="rgb(221,150,9)" stroke-opacity="1" stroke-width="4.681"
                      d=" M47.915000915527344,76.93800354003906 C47.915000915527344,76.93800354003906 66.94999694824219,76.93800354003906 66.94999694824219,76.93800354003906"></path>
            </g>
            <g opacity="1" transform="matrix(1,0,0,1,0,0)">
                <path stroke-linecap="round" stroke-linejoin="miter" fill-opacity="0" stroke-miterlimit="10"
                      stroke="rgb(221,150,9)" stroke-opacity="1" stroke-width="4.681"
                      d=" M60.435001373291016,74.36299896240234 C60.435001373291016,74.36299896240234 66.9489974975586,74.36299896240234 66.9489974975586,74.36299896240234"></path>
            </g>
            <g opacity="1" transform="matrix(1,0,0,1,0,0)">
                <path stroke-linecap="round" stroke-linejoin="miter" fill-opacity="0" stroke-miterlimit="10"
                      stroke="rgb(255,206,0)" stroke-opacity="1" stroke-width="4.681"
                      d=" M47.915000915527344,74.36299896240234 C47.915000915527344,74.36299896240234 60.43600082397461,74.36299896240234 60.43600082397461,74.36299896240234"></path>
            </g>
            <g opacity="1" transform="matrix(1,0,0,1,57.3120002746582,8.616999626159668)">
                <path fill="rgb(221,150,9)" fill-opacity="1"
                      d=" M-34.999000549316406,-0.31200000643730164 C-34.999000549316406,-0.31200000643730164 34.999000549316406,2.0290000438690186 34.999000549316406,2.0290000438690186 C34.999000549316406,2.0290000438690186 34.999000549316406,-2.0290000438690186 34.999000549316406,-2.0290000438690186 C34.999000549316406,-2.0290000438690186 -34.999000549316406,-2.0290000438690186 -34.999000549316406,-2.0290000438690186 C-34.999000549316406,-2.0290000438690186 -34.999000549316406,-0.31200000643730164 -34.999000549316406,-0.31200000643730164z"></path>
            </g>
            <g opacity="1" transform="matrix(1,0,0,1,57.51499938964844,3.5179998874664307)">
                <path fill="rgb(255,206,0)" fill-opacity="1"
                      d=" M-36.21200180053711,3.2679998874664307 C-36.21200180053711,3.2679998874664307 36.21200180053711,3.2679998874664307 36.21200180053711,3.2679998874664307 C36.21200180053711,3.2679998874664307 36.21200180053711,-3.2679998874664307 36.21200180053711,-3.2679998874664307 C36.21200180053711,-3.2679998874664307 -36.21200180053711,-3.2679998874664307 -36.21200180053711,-3.2679998874664307 C-36.21200180053711,-3.2679998874664307 -36.21200180053711,3.2679998874664307 -36.21200180053711,3.2679998874664307z"></path>
            </g>
            <g opacity="1" transform="matrix(1,0,0,1,30.017000198364258,3.5179998874664307)">
                <path fill="rgb(255,238,176)" fill-opacity="1"
                      d=" M-4.3429999351501465,-3.2679998874664307 C-4.341000080108643,-1.3639999628067017 -4.315999984741211,1.4390000104904175 -4.275000095367432,3.2690000534057617 C-4.275000095367432,3.2690000534057617 4.289000034332275,3.2690000534057617 4.289000034332275,3.2690000534057617 C4.310999870300293,1.440999984741211 4.329999923706055,-1.3619999885559082 4.3429999351501465,-3.2679998874664307 C4.3429999351501465,-3.2679998874664307 -4.3429999351501465,-3.2679998874664307 -4.3429999351501465,-3.2679998874664307z"></path>
            </g>
            <g opacity="1" transform="matrix(1,0,0,1,56.638999938964844,114.35199737548828)">
                <path fill="rgb(193,108,7)" fill-opacity="1"
                      d=" M24.423999786376953,-1.024999976158142 C24.423999786376953,-1.024999976158142 24.423999786376953,-0.4620000123977661 24.423999786376953,-0.4620000123977661 C24.398000717163086,0.9259999990463257 23.417999267578125,2.0439999103546143 22.211000442504883,2.0439999103546143 C22.211000442504883,2.0439999103546143 -22.21500015258789,2.000999927520752 -22.21500015258789,2.000999927520752 C-23.437000274658203,1.9989999532699585 -24.423999786376953,0.8529999852180481 -24.423999786376953,-0.5659999847412109 C-24.423999786376953,-0.5659999847412109 -24.423999786376953,-0.9819999933242798 -24.423999786376953,-0.9819999933242798 C-24.423999786376953,-1.3600000143051147 -24.354999542236328,-1.7209999561309814 -24.226999282836914,-2.0439999103546143 C-24.226999282836914,-2.0439999103546143 24.240999221801758,-2.0439999103546143 24.240999221801758,-2.0439999103546143 C24.358999252319336,-1.7319999933242798 24.423999786376953,-1.3869999647140503 24.423999786376953,-1.024999976158142z"></path>
            </g>
        </g>
        <g transform="matrix(0.21612796187400818,0,0,0.21612796187400818,125.7830810546875,195.59156799316406)"
           opacity="1" style="display: block;">
            <g opacity="1" transform="matrix(1,0,0,1,7.943999767303467,7.567999839782715)">
                <path fill="rgb(241,241,241)" fill-opacity="1"
                      d=" M0,-7.317999839782715 C0,-7.317999839782715 1.815999984741211,-1.7269999980926514 1.815999984741211,-1.7269999980926514 C1.815999984741211,-1.7269999980926514 7.693999767303467,-1.7269999980926514 7.693999767303467,-1.7269999980926514 C7.693999767303467,-1.7269999980926514 2.937999963760376,1.7280000448226929 2.937999963760376,1.7280000448226929 C2.937999963760376,1.7280000448226929 4.755000114440918,7.317999839782715 4.755000114440918,7.317999839782715 C4.755000114440918,7.317999839782715 0,3.86299991607666 0,3.86299991607666 C0,3.86299991607666 -4.755000114440918,7.317999839782715 -4.755000114440918,7.317999839782715 C-4.755000114440918,7.317999839782715 -2.937999963760376,1.7280000448226929 -2.937999963760376,1.7280000448226929 C-2.937999963760376,1.7280000448226929 -7.693999767303467,-1.7269999980926514 -7.693999767303467,-1.7269999980926514 C-7.693999767303467,-1.7269999980926514 -1.815999984741211,-1.7269999980926514 -1.815999984741211,-1.7269999980926514 C-1.815999984741211,-1.7269999980926514 0,-7.317999839782715 0,-7.317999839782715z"></path>
            </g>
        </g>
        <g style="display: block;" transform="matrix(1,0,0,1,344.0559997558594,121.16099548339844)" opacity="1">
            <g opacity="1" transform="matrix(1,0,0,1,7.943999767303467,7.567999839782715)">
                <path fill="rgb(255,206,0)" fill-opacity="1"
                      d=" M0,-7.317999839782715 C0,-7.317999839782715 1.815999984741211,-1.7269999980926514 1.815999984741211,-1.7269999980926514 C1.815999984741211,-1.7269999980926514 7.693999767303467,-1.7269999980926514 7.693999767303467,-1.7269999980926514 C7.693999767303467,-1.7269999980926514 2.937999963760376,1.7280000448226929 2.937999963760376,1.7280000448226929 C2.937999963760376,1.7280000448226929 4.755000114440918,7.317999839782715 4.755000114440918,7.317999839782715 C4.755000114440918,7.317999839782715 0,3.86299991607666 0,3.86299991607666 C0,3.86299991607666 -4.755000114440918,7.317999839782715 -4.755000114440918,7.317999839782715 C-4.755000114440918,7.317999839782715 -2.937999963760376,1.7280000448226929 -2.937999963760376,1.7280000448226929 C-2.937999963760376,1.7280000448226929 -7.693999767303467,-1.7269999980926514 -7.693999767303467,-1.7269999980926514 C-7.693999767303467,-1.7269999980926514 -1.815999984741211,-1.7269999980926514 -1.815999984741211,-1.7269999980926514 C-1.815999984741211,-1.7269999980926514 0,-7.317999839782715 0,-7.317999839782715z"></path>
            </g>
        </g>
        <g style="display: block;" transform="matrix(1,0,0,1,354.0559997558594,281.1610107421875)" opacity="1">
            <g opacity="1" transform="matrix(1,0,0,1,7.943999767303467,7.567999839782715)">
                <path fill="rgb(255,206,0)" fill-opacity="1"
                      d=" M0,-7.317999839782715 C0,-7.317999839782715 1.815999984741211,-1.7269999980926514 1.815999984741211,-1.7269999980926514 C1.815999984741211,-1.7269999980926514 7.693999767303467,-1.7269999980926514 7.693999767303467,-1.7269999980926514 C7.693999767303467,-1.7269999980926514 2.937999963760376,1.7280000448226929 2.937999963760376,1.7280000448226929 C2.937999963760376,1.7280000448226929 4.755000114440918,7.317999839782715 4.755000114440918,7.317999839782715 C4.755000114440918,7.317999839782715 0,3.86299991607666 0,3.86299991607666 C0,3.86299991607666 -4.755000114440918,7.317999839782715 -4.755000114440918,7.317999839782715 C-4.755000114440918,7.317999839782715 -2.937999963760376,1.7280000448226929 -2.937999963760376,1.7280000448226929 C-2.937999963760376,1.7280000448226929 -7.693999767303467,-1.7269999980926514 -7.693999767303467,-1.7269999980926514 C-7.693999767303467,-1.7269999980926514 -1.815999984741211,-1.7269999980926514 -1.815999984741211,-1.7269999980926514 C-1.815999984741211,-1.7269999980926514 0,-7.317999839782715 0,-7.317999839782715z"></path>
            </g>
        </g>
        <g style="display: block;" transform="matrix(1,0,0,1,154.05599975585938,611.1610107421875)" opacity="1">
            <g opacity="1" transform="matrix(1,0,0,1,7.943999767303467,7.567999839782715)">
                <path fill="rgb(255,206,0)" fill-opacity="1"
                      d=" M0,-7.317999839782715 C0,-7.317999839782715 1.815999984741211,-1.7269999980926514 1.815999984741211,-1.7269999980926514 C1.815999984741211,-1.7269999980926514 7.693999767303467,-1.7269999980926514 7.693999767303467,-1.7269999980926514 C7.693999767303467,-1.7269999980926514 2.937999963760376,1.7280000448226929 2.937999963760376,1.7280000448226929 C2.937999963760376,1.7280000448226929 4.755000114440918,7.317999839782715 4.755000114440918,7.317999839782715 C4.755000114440918,7.317999839782715 0,3.86299991607666 0,3.86299991607666 C0,3.86299991607666 -4.755000114440918,7.317999839782715 -4.755000114440918,7.317999839782715 C-4.755000114440918,7.317999839782715 -2.937999963760376,1.7280000448226929 -2.937999963760376,1.7280000448226929 C-2.937999963760376,1.7280000448226929 -7.693999767303467,-1.7269999980926514 -7.693999767303467,-1.7269999980926514 C-7.693999767303467,-1.7269999980926514 -1.815999984741211,-1.7269999980926514 -1.815999984741211,-1.7269999980926514 C-1.815999984741211,-1.7269999980926514 0,-7.317999839782715 0,-7.317999839782715z"></path>
            </g>
        </g>
        <g style="display: block;" transform="matrix(1,0,0,1,-45.944000244140625,351.1610107421875)" opacity="1">
            <g opacity="1" transform="matrix(1,0,0,1,7.943999767303467,7.567999839782715)">
                <path fill="rgb(255,206,0)" fill-opacity="1"
                      d=" M0,-7.317999839782715 C0,-7.317999839782715 1.815999984741211,-1.7269999980926514 1.815999984741211,-1.7269999980926514 C1.815999984741211,-1.7269999980926514 7.693999767303467,-1.7269999980926514 7.693999767303467,-1.7269999980926514 C7.693999767303467,-1.7269999980926514 2.937999963760376,1.7280000448226929 2.937999963760376,1.7280000448226929 C2.937999963760376,1.7280000448226929 4.755000114440918,7.317999839782715 4.755000114440918,7.317999839782715 C4.755000114440918,7.317999839782715 0,3.86299991607666 0,3.86299991607666 C0,3.86299991607666 -4.755000114440918,7.317999839782715 -4.755000114440918,7.317999839782715 C-4.755000114440918,7.317999839782715 -2.937999963760376,1.7280000448226929 -2.937999963760376,1.7280000448226929 C-2.937999963760376,1.7280000448226929 -7.693999767303467,-1.7269999980926514 -7.693999767303467,-1.7269999980926514 C-7.693999767303467,-1.7269999980926514 -1.815999984741211,-1.7269999980926514 -1.815999984741211,-1.7269999980926514 C-1.815999984741211,-1.7269999980926514 0,-7.317999839782715 0,-7.317999839782715z"></path>
            </g>
        </g>
        <g style="display: block;" transform="matrix(1,0,0,1,-65.94400024414062,231.16099548339844)" opacity="1">
            <g opacity="1" transform="matrix(1,0,0,1,7.943999767303467,7.567999839782715)">
                <path fill="rgb(255,206,0)" fill-opacity="1"
                      d=" M0,-7.317999839782715 C0,-7.317999839782715 1.815999984741211,-1.7269999980926514 1.815999984741211,-1.7269999980926514 C1.815999984741211,-1.7269999980926514 7.693999767303467,-1.7269999980926514 7.693999767303467,-1.7269999980926514 C7.693999767303467,-1.7269999980926514 2.937999963760376,1.7280000448226929 2.937999963760376,1.7280000448226929 C2.937999963760376,1.7280000448226929 4.755000114440918,7.317999839782715 4.755000114440918,7.317999839782715 C4.755000114440918,7.317999839782715 0,3.86299991607666 0,3.86299991607666 C0,3.86299991607666 -4.755000114440918,7.317999839782715 -4.755000114440918,7.317999839782715 C-4.755000114440918,7.317999839782715 -2.937999963760376,1.7280000448226929 -2.937999963760376,1.7280000448226929 C-2.937999963760376,1.7280000448226929 -7.693999767303467,-1.7269999980926514 -7.693999767303467,-1.7269999980926514 C-7.693999767303467,-1.7269999980926514 -1.815999984741211,-1.7269999980926514 -1.815999984741211,-1.7269999980926514 C-1.815999984741211,-1.7269999980926514 0,-7.317999839782715 0,-7.317999839782715z"></path>
            </g>
        </g>
        <g style="display: block;" transform="matrix(1,0,0,1,-45.944000244140625,101.16099548339844)" opacity="1">
            <g opacity="1" transform="matrix(1,0,0,1,7.943999767303467,7.567999839782715)">
                <path fill="rgb(255,206,0)" fill-opacity="1"
                      d=" M0,-7.317999839782715 C0,-7.317999839782715 1.815999984741211,-1.7269999980926514 1.815999984741211,-1.7269999980926514 C1.815999984741211,-1.7269999980926514 7.693999767303467,-1.7269999980926514 7.693999767303467,-1.7269999980926514 C7.693999767303467,-1.7269999980926514 2.937999963760376,1.7280000448226929 2.937999963760376,1.7280000448226929 C2.937999963760376,1.7280000448226929 4.755000114440918,7.317999839782715 4.755000114440918,7.317999839782715 C4.755000114440918,7.317999839782715 0,3.86299991607666 0,3.86299991607666 C0,3.86299991607666 -4.755000114440918,7.317999839782715 -4.755000114440918,7.317999839782715 C-4.755000114440918,7.317999839782715 -2.937999963760376,1.7280000448226929 -2.937999963760376,1.7280000448226929 C-2.937999963760376,1.7280000448226929 -7.693999767303467,-1.7269999980926514 -7.693999767303467,-1.7269999980926514 C-7.693999767303467,-1.7269999980926514 -1.815999984741211,-1.7269999980926514 -1.815999984741211,-1.7269999980926514 C-1.815999984741211,-1.7269999980926514 0,-7.317999839782715 0,-7.317999839782715z"></path>
            </g>
        </g>
        <g style="display: block;" transform="matrix(1,0,0,1,154.05599975585938,-68.83899688720703)" opacity="1">
            <g opacity="1" transform="matrix(1,0,0,1,7.943999767303467,7.567999839782715)">
                <path fill="rgb(255,206,0)" fill-opacity="1"
                      d=" M0,-7.317999839782715 C0,-7.317999839782715 1.815999984741211,-1.7269999980926514 1.815999984741211,-1.7269999980926514 C1.815999984741211,-1.7269999980926514 7.693999767303467,-1.7269999980926514 7.693999767303467,-1.7269999980926514 C7.693999767303467,-1.7269999980926514 2.937999963760376,1.7280000448226929 2.937999963760376,1.7280000448226929 C2.937999963760376,1.7280000448226929 4.755000114440918,7.317999839782715 4.755000114440918,7.317999839782715 C4.755000114440918,7.317999839782715 0,3.86299991607666 0,3.86299991607666 C0,3.86299991607666 -4.755000114440918,7.317999839782715 -4.755000114440918,7.317999839782715 C-4.755000114440918,7.317999839782715 -2.937999963760376,1.7280000448226929 -2.937999963760376,1.7280000448226929 C-2.937999963760376,1.7280000448226929 -7.693999767303467,-1.7269999980926514 -7.693999767303467,-1.7269999980926514 C-7.693999767303467,-1.7269999980926514 -1.815999984741211,-1.7269999980926514 -1.815999984741211,-1.7269999980926514 C-1.815999984741211,-1.7269999980926514 0,-7.317999839782715 0,-7.317999839782715z"></path>
            </g>
        </g>
    </g>
</svg>
